<svg xmlns="http://www.w3.org/2000/svg" viewBox="0 0 1317.72 612.74"><defs><style>.cls-1{fill:#fff;}.cls-2{fill:none;}</style></defs><title>nlife-logo</title><g id="Layer_2" data-name="Layer 2"><path class="cls-1" d="M0,0V439.06H1317.72V0ZM361.08,307.47H310l-75.11-122h-.79l1.05,122H191.37V121h51.39l74.84,121.7h.79L317.34,121h43.74Zm208.73,0H452.27V121H497.6V268.22h72.21Zm119.12,0H643.6l0-185.87H689Zm214-148H824.65v38.46h72.21V235H824.65v72.44H780.12V121h122.8Zm211.89,148H984.62V121h125.44v38.19h-82v35h77.47v36.09h-77.47V269h86.7Z" transform="translate(0 12.55)"/><line class="cls-2" x1="725.85" y1="186.5" x2="725.89" y2="0.64"/><line class="cls-2" x1="489.2" x2="489.2" y2="186.5"/><line class="cls-2" x1="272.04" y1="186.5" x2="270.98" y2="64.54"/><line class="cls-2" x1="1021.55" x2="1021.55" y2="186.5"/><line class="cls-2" x1="817.04" x2="817.04" y2="186.5"/></g><g id="Layer_1" data-name="Layer 1"><path class="cls-1" d="M1062.67,531.83l-11.86,32h23.46Zm25,68.36-7.25-18.31h-36.1l-6.85,18.31H1013l39.13-93.25H1074l38.75,93.25Zm-223.75,0V506.94h22.67v93.25Zm-187.38-74h-11.2V580.7h10.68c16.07,0,31-6.59,31-27.4S692.13,526.17,676.58,526.17Zm1.59,74H643.38V506.94h33.73c26.49,0,53.37,11.06,53.37,46.36C730.48,586.1,703.86,600.19,678.17,600.19ZM509.89,581v19.23H444.8V506.94h62.72V526h-41v17.51h38.74V561.6H466.54V581ZM285,600.19l.53-66h-.4l-24.24,66H245l-23.58-66h-.4l.53,66H200.37V506.94h32l21.21,59.8h.53l20.29-59.8H307v93.25Z" transform="translate(0 12.55)"/></g></svg>